<svg width="194" height="40" viewBox="0 0 194 40" fill="none" xmlns="http://www.w3.org/2000/svg">
<path d="M88.1648 9.63635L92.7188 24.5511H92.8878L97.4418 9.63635H102.95L96.0795 30H89.527L82.6562 9.63635H88.1648Z" fill="white"/>
<path d="M108.783 30V9.63635H122.982V13.6335H113.705V17.8096H122.256V21.8168H113.705V26.0028H122.982V30H108.783Z" fill="white"/>
<path d="M147.035 9.63635V30H142.859L134.755 18.2471H134.626V30H129.704V9.63635H133.94L141.954 21.3693H142.123V9.63635H147.035Z" fill="white"/>
<path d="M153.104 13.6335V9.63635H170.315V13.6335H164.141V30H159.288V13.6335H153.104Z" fill="white"/>
<path d="M188.679 9.63635H193.591V22.7713C193.591 24.2893 193.229 25.6117 192.507 26.7386C191.784 27.8589 190.777 28.7273 189.484 29.3437C188.191 29.9536 186.69 30.2585 184.98 30.2585C183.25 30.2585 181.738 29.9536 180.446 29.3437C179.153 28.7273 178.149 27.8589 177.433 26.7386C176.717 25.6117 176.359 24.2893 176.359 22.7713V9.63635H181.281V22.3437C181.281 23.0464 181.433 23.6728 181.738 24.223C182.05 24.7732 182.484 25.2041 183.041 25.5156C183.598 25.8272 184.244 25.9829 184.98 25.9829C185.716 25.9829 186.359 25.8272 186.909 25.5156C187.466 25.2041 187.9 24.7732 188.211 24.223C188.523 23.6728 188.679 23.0464 188.679 22.3437V9.63635Z" fill="white"/>
<g clip-path="url(#clip0_1_44)">
<path d="M8.94839e-06 6.99564C1.97577 9.84698 3.21069 11.6884 4.50619 13.4868C7.46483 17.5939 10.536 18.2213 14.7708 15.519C17.1465 14.0031 19.3962 12.2917 21.7783 10.7867C25.2797 8.57466 28.0411 8.98596 30.777 12.1682C32.3181 13.9606 33.6033 15.968 35.0987 17.802C37.4927 20.7381 40.505 21.2873 43.7835 19.4262C44.8129 18.8419 45.7528 18.1028 46.7392 17.4427C50.0705 15.2132 53.1167 12.3928 58.081 12.7636C56.3351 10.2441 55.022 8.28545 53.6438 6.37312C50.6379 2.20224 47.3948 1.58796 42.9637 4.38798C40.9578 5.65558 39.055 7.08344 37.0627 8.3734C32.2549 11.4862 29.8474 11.0518 26.5506 6.51627C25.5934 5.19934 24.7431 3.80181 23.7353 2.52576C21.5431 -0.250101 18.9434 -0.748551 15.935 1.08306C14.0361 2.23921 12.1917 3.50059 10.4182 4.83944C7.60205 6.96539 4.6424 8.45582 0 6.99562L8.94839e-06 6.99564Z" fill="#4DB6AC"/>
<path d="M13.8092 26.9268C15.5963 29.5058 16.9036 31.4641 18.284 33.3702C21.4813 37.7852 25.3081 38.5056 29.8013 35.5443C31.9118 34.1533 33.9507 32.6537 36.0772 31.2881C39.9778 28.7833 42.3379 29.1685 45.2892 32.8049C46.4091 34.1849 47.329 35.7235 48.419 37.1292C50.893 40.3198 53.5438 40.8399 56.9522 38.7443C58.8506 37.5772 60.6854 36.2983 62.4824 34.9803C65.0843 33.072 67.8061 31.6782 72 32.8634C70.1922 30.2545 68.8795 28.3113 67.5167 26.4034C64.6623 22.4072 61.9067 21.8837 57.6753 24.5879C55.4206 26.0289 53.2775 27.6434 51.0128 29.0679C47.1939 31.47 44.084 30.9699 41.186 27.5553C40.5164 26.7662 39.9105 25.9086 39.3797 25.0208C35.3383 18.2612 32.2064 18.0612 26.1082 22.6405C22.6912 25.2065 19.2101 27.8339 13.8092 26.9268L13.8092 26.9268Z" fill="#4DB6AC"/>
<path d="M0 6.99562C4.64239 8.45583 7.60204 6.9654 10.4182 4.83944C12.1917 3.50059 14.036 2.23921 15.935 1.08307C18.9434 -0.748549 21.5431 -0.250107 23.7353 2.52576C24.7431 3.80181 25.5934 5.19934 26.5506 6.51628C29.8474 11.0518 32.2549 11.4862 37.0627 8.37341C39.055 7.08344 40.9578 5.65558 42.9637 4.38799C47.3948 1.58796 50.6379 2.20224 53.6438 6.37312C55.022 8.28545 56.3351 10.2441 58.081 12.7636C53.1167 12.3928 50.0705 15.2132 46.7392 17.4427C45.7528 18.1028 44.8129 18.8419 43.7835 19.4262C40.505 21.2873 37.4927 20.7381 35.0987 17.802C33.6032 15.968 32.3181 13.9606 30.777 12.1682C28.0411 8.98596 25.2797 8.57467 21.7783 10.7868C19.3962 12.2917 17.1465 14.0031 14.7708 15.519C10.536 18.2213 7.46483 17.5939 4.50619 13.4868C3.2107 11.6884 1.97577 9.84698 8.94839e-06 6.99564L0 6.99562Z" fill="#4DB6AC"/>
<path d="M13.8092 26.9268C19.2101 27.8339 22.6912 25.2065 26.1082 22.6405C32.2064 18.0612 35.3383 18.2612 39.3797 25.0208C39.9105 25.9086 40.5164 26.7662 41.186 27.5553C44.084 30.9699 47.1939 31.47 51.0128 29.0679C53.2775 27.6434 55.4206 26.0288 57.6753 24.5879C61.9067 21.8836 64.6623 22.4072 67.5167 26.4034C68.8795 28.3113 70.1922 30.2544 72 32.8634C67.8061 31.6782 65.0843 33.072 62.4824 34.9803C60.6854 36.2983 58.8506 37.5772 56.9522 38.7443C53.5438 40.8399 50.893 40.3198 48.419 37.1292C47.329 35.7234 46.4091 34.1848 45.2892 32.8049C42.3379 29.1685 39.9778 28.7833 36.0772 31.2881C33.9507 32.6537 31.9118 34.1533 29.8013 35.5443C25.3081 38.5056 21.4813 37.7852 18.284 33.3702C16.9036 31.4641 15.5963 29.5058 13.8092 26.9268L13.8092 26.9268Z" fill="#F99746"/>
</g>
<defs>
<clipPath id="clip0_1_44">
<rect width="72" height="40" fill="white"/>
</clipPath>
</defs>
</svg>
