<svg width="23" height="31" viewBox="0 0 23 31" fill="none" xmlns="http://www.w3.org/2000/svg">
<path d="M3.83333 0C1.71901 0 0 1.7377 0 3.875V27.125C0 29.2623 1.71901 31 3.83333 31H19.1667C21.281 31 23 29.2623 23 27.125V9.6875H15.3333C14.2732 9.6875 13.4167 8.82168 13.4167 7.75V0H3.83333ZM15.3333 0V7.75H23L15.3333 0ZM3.83333 4.84375C3.83333 4.31094 4.26458 3.875 4.79167 3.875H8.625C9.15208 3.875 9.58333 4.31094 9.58333 4.84375C9.58333 5.37656 9.15208 5.8125 8.625 5.8125H4.79167C4.26458 5.8125 3.83333 5.37656 3.83333 4.84375ZM3.83333 8.71875C3.83333 8.18594 4.26458 7.75 4.79167 7.75H8.625C9.15208 7.75 9.58333 8.18594 9.58333 8.71875C9.58333 9.25156 9.15208 9.6875 8.625 9.6875H4.79167C4.26458 9.6875 3.83333 9.25156 3.83333 8.71875ZM11.5 13.0781C12.0271 13.0781 12.4583 13.5141 12.4583 14.0469V15.0943C12.9674 15.167 13.4586 15.282 13.9018 15.4031C14.4109 15.5424 14.7164 16.0691 14.5786 16.5898C14.4409 17.1105 13.9198 17.4133 13.4047 17.274C12.7398 17.0924 12.087 16.9592 11.482 16.9531C10.9789 16.9471 10.4398 17.0621 10.0685 17.2861C9.72708 17.492 9.58333 17.7281 9.58333 18.0611C9.58333 18.2852 9.6612 18.4547 10.0206 18.6727C10.4339 18.9209 11.0148 19.1025 11.7695 19.3326L11.7995 19.3387C12.4763 19.5445 13.3148 19.7988 13.9737 20.2227C14.6984 20.6828 15.3154 21.4154 15.3333 22.5355C15.3513 23.7041 14.7583 24.5518 13.9617 25.0543C13.5005 25.3449 12.9794 25.5145 12.4583 25.6053V26.6406C12.4583 27.1734 12.0271 27.6094 11.5 27.6094C10.9729 27.6094 10.5417 27.1734 10.5417 26.6406V25.5629C9.87083 25.4357 9.24193 25.2178 8.69089 25.024C8.5651 24.9816 8.43932 24.9393 8.31953 24.8969C7.81641 24.7273 7.54688 24.1764 7.71458 23.6738C7.88229 23.1713 8.42734 22.8928 8.92448 23.0623C9.07422 23.1107 9.21198 23.1592 9.34974 23.2076C10.1643 23.4861 10.8232 23.7162 11.524 23.7344C12.069 23.7525 12.5961 23.6314 12.9435 23.4135C13.249 23.2197 13.4167 22.9715 13.4107 22.5658C13.4047 22.2873 13.3029 22.0936 12.9495 21.8635C12.5422 21.6031 11.9612 21.4154 11.2125 21.1854L11.1167 21.1551C10.4578 20.9553 9.6612 20.7131 9.03229 20.3256C8.31354 19.8896 7.67865 19.1812 7.67266 18.0672C7.66667 16.8926 8.31953 16.0812 9.09818 15.615C9.5474 15.3486 10.0445 15.1791 10.5417 15.0883V14.0469C10.5417 13.5141 10.9729 13.0781 11.5 13.0781V13.0781Z" fill="currentColor"/>
</svg>
