<svg width="32" height="25" viewBox="0 0 32 25" fill="none" xmlns="http://www.w3.org/2000/svg">
<path d="M26.75 2.00222C26.28 1.54323 26.28 0.801043 26.75 0.346942C27.22 -0.10716 27.98 -0.112043 28.445 0.346942L31.645 3.47194C31.87 3.69167 31.995 3.98952 31.995 4.30202C31.995 4.61452 31.87 4.91237 31.645 5.1321L28.445 8.2571C27.975 8.71608 27.215 8.71608 26.75 8.2571C26.285 7.79811 26.28 7.05593 26.75 6.60182L27.9 5.47878L19.2 5.46901C18.535 5.46901 18 4.94655 18 4.29714C18 3.64772 18.535 3.12526 19.2 3.12526H27.905L26.75 2.00222ZM5.25 18.4085L4.1 19.5315H12.8C13.465 19.5315 14 20.054 14 20.7034C14 21.3528 13.465 21.8753 12.8 21.8753H4.095L5.245 22.9983C5.715 23.4573 5.715 24.1995 5.245 24.6536C4.775 25.1077 4.015 25.1126 3.55 24.6536L0.35 21.5335C0.125 21.3137 0 21.0159 0 20.7034C0 20.3909 0.125 20.093 0.35 19.8733L3.55 16.7483C4.02 16.2893 4.78 16.2893 5.245 16.7483C5.71 17.2073 5.715 17.9495 5.245 18.4036L5.25 18.4085ZM4.8 3.12526H16.895C16.71 3.47682 16.6 3.87233 16.6 4.29714C16.6 5.6985 17.765 6.8362 19.2 6.8362H25.07C24.87 7.66628 25.1 8.5696 25.76 9.21901C26.775 10.2102 28.42 10.2102 29.435 9.21901L30.4 8.27663V18.7503C30.4 20.4739 28.965 21.8753 27.2 21.8753H15.105C15.29 21.5237 15.4 21.1282 15.4 20.7034C15.4 19.302 14.235 18.1643 12.8 18.1643H6.93C7.13 17.3342 6.9 16.4309 6.24 15.7815C5.225 14.7903 3.58 14.7903 2.565 15.7815L1.6 16.7239V6.25026C1.6 4.52663 3.035 3.12526 4.8 3.12526ZM8 6.25026H4.8V9.37526C6.565 9.37526 8 7.97389 8 6.25026ZM27.2 15.6253C25.435 15.6253 24 17.0266 24 18.7503H27.2V15.6253ZM16 17.1878C18.65 17.1878 20.8 15.0882 20.8 12.5003C20.8 9.91237 18.65 7.81276 16 7.81276C13.35 7.81276 11.2 9.91237 11.2 12.5003C11.2 15.0882 13.35 17.1878 16 17.1878Z" fill="#FFA412"/>
</svg>
